<svg width="60" height="60" viewBox="0 0 60 60" fill="none" xmlns="http://www.w3.org/2000/svg">
<g clip-path="url(#clip0_49_72)">
<mask id="mask0_49_72" style="mask-type:alpha" maskUnits="userSpaceOnUse" x="0" y="0" width="60" height="60">
<path d="M30 60C46.5685 60 60 46.5685 60 30C60 13.4314 46.5685 -7.62939e-06 30 -7.62939e-06C13.4315 -7.62939e-06 0 13.4314 0 30C0 46.5685 13.4315 60 30 60Z" fill="white"/>
</mask>
<g mask="url(#mask0_49_72)">
<path d="M30 60C46.5685 60 60 46.5685 60 30C60 13.4314 46.5685 -7.62939e-06 30 -7.62939e-06C13.4315 -7.62939e-06 0 13.4314 0 30C0 46.5685 13.4315 60 30 60Z" fill="white"/>
<path fill-rule="evenodd" clip-rule="evenodd" d="M30.4176 -2.14624C30.4176 -2.14624 41.4126 -1.35502 45.5163 0.62611C39.573 6.5695 28.7263 17.4056 28.7263 17.4056L21.3584 20.908L17.4056 28.7264C17.4056 28.7264 7.74736 38.3785 1.66246 44.4634C-0.177166 40.6427 -2.79956 29.4281 -2.79956 29.4281L2.73664 4.87027L30.4176 -2.14624Z" fill="#EFEFEF"/>
<path d="M32.5119 39.1629L28.1274 43.5473L29.0831 44.503L33.4676 40.1185L32.5119 39.1629Z" fill="#04B784"/>
<path d="M43.1459 28.2874L38.759 32.6743L39.7762 33.6915L44.1631 29.3046L43.1459 28.2874Z" fill="#04B784"/>
<path d="M43.3017 28.4434L38.915 32.8302L26.0376 20.0943L19.8112 26.3207L32.547 39.1981L28.1602 43.5849L9.90552 25.4717L25.1885 10.1887L43.3017 28.4434Z" fill="#70C8B7"/>
<path d="M9.90552 36.2264L14.4338 31.6981L28.0187 45.283L34.2451 39.0566L20.6602 25.4717L25.1885 20.9434L38.7734 34.5283L44.9999 28.3019L31.4149 14.717L35.9433 10.1887L54.9055 29.1509L44.1508 39.9056L28.8678 55.1886L9.90552 36.2264Z" fill="#009788"/>
<path d="M25.1919 20.9407L20.6599 25.4727L21.4705 26.2832L26.0024 21.7513L25.1919 20.9407Z" fill="#007C6D"/>
<path d="M35.945 10.1926L31.4194 14.7182L32.2199 15.5187L36.7455 10.9931L35.945 10.1926Z" fill="#007C6D"/>
</g>
</g>
<defs>
<clipPath id="clip0_49_72">
<rect width="60" height="60" fill="white"/>
</clipPath>
</defs>
</svg>
